<svg width="46" height="10" viewBox="0 0 46 10" fill="none" xmlns="http://www.w3.org/2000/svg">
<path d="M7.01436 4.54475C7.18232 4.58895 7.30608 4.66409 7.38563 4.77017C7.46519 4.8674 7.50497 4.97348 7.50497 5.0884C7.50497 5.19448 7.46961 5.29613 7.3989 5.39337C7.32818 5.48177 7.22652 5.55249 7.09392 5.60553V7.59448C7.09392 7.78895 7.02762 7.95249 6.89503 8.08508C6.77127 8.21768 6.65193 8.34144 6.53702 8.45635C6.25414 8.73923 5.91823 8.94254 5.52928 9.0663C5.14917 9.1989 4.76022 9.26519 4.36243 9.26519C3.71713 9.26519 3.15138 9.1326 2.66519 8.8674C2.17901 8.59337 1.77238 8.25304 1.4453 7.84641C1.12707 7.43094 0.883978 6.98011 0.716022 6.49392C0.556906 6.00774 0.477348 5.54365 0.477348 5.10166C0.477348 4.8453 0.508287 4.56685 0.570166 4.2663C0.632044 3.96575 0.724862 3.66961 0.848619 3.3779C0.981215 3.08619 1.14475 2.81216 1.33923 2.5558C1.5337 2.29945 1.76354 2.08729 2.02873 1.91934C2.50608 1.60995 2.99227 1.35801 3.48729 1.16354C3.99116 0.960221 4.50387 0.858564 5.02541 0.858564C5.17569 0.858564 5.35691 0.876243 5.56906 0.911603C5.78122 0.938122 5.98453 0.986741 6.179 1.05746C6.38232 1.11934 6.5547 1.20774 6.69613 1.32265C6.83757 1.43757 6.90829 1.57901 6.90829 1.74696C6.90829 1.8884 6.85967 2.00774 6.76243 2.10497C6.66519 2.20221 6.54144 2.25083 6.39116 2.25083C6.3116 2.25083 6.21878 2.23315 6.11271 2.19779C6.00663 2.16243 5.89171 2.12707 5.76796 2.09171C5.65304 2.04751 5.52928 2.00774 5.39669 1.97238C5.27293 1.93702 5.14917 1.91934 5.02541 1.91934C4.93702 1.91934 4.85304 1.92376 4.77348 1.9326C4.69392 1.94144 4.61436 1.95912 4.53481 1.98564C4.19006 2.09171 3.84088 2.21989 3.48729 2.37017C3.1337 2.5116 2.81105 2.70166 2.51934 2.94033C2.23646 3.17901 2.00663 3.47514 1.82983 3.82873C1.65304 4.17348 1.56464 4.60663 1.56464 5.12818C1.56464 5.55249 1.63978 5.9547 1.79006 6.33481C1.94033 6.70608 2.13923 7.02873 2.38674 7.30276C2.63425 7.5768 2.92155 7.79337 3.24862 7.95249C3.57569 8.1116 3.91602 8.19116 4.26961 8.19116C4.57901 8.19116 4.88398 8.12928 5.18453 8.00552C5.48508 7.88177 5.75912 7.69613 6.00663 7.44862V5.6453C5.67072 5.65414 5.33481 5.65856 4.99889 5.65856C4.67182 5.65856 4.34033 5.65856 4.00442 5.65856C3.80994 5.63204 3.66409 5.56575 3.56685 5.45967C3.47845 5.35359 3.43425 5.23867 3.43425 5.11492C3.43425 4.99116 3.48287 4.87182 3.58011 4.75691C3.68619 4.63315 3.84088 4.57127 4.0442 4.57127C4.1326 4.57127 4.31823 4.57127 4.6011 4.57127C4.89282 4.56243 5.20221 4.55801 5.52928 4.55801C5.85635 4.55801 6.16133 4.55801 6.4442 4.55801C6.73591 4.54917 6.92597 4.54475 7.01436 4.54475ZM14.8107 5.43315C14.8373 5.25635 14.8594 5.07956 14.877 4.90276C14.9036 4.71713 14.9168 4.53149 14.9168 4.34586C14.9168 4.11602 14.8947 3.88177 14.8505 3.64309C14.8063 3.40442 14.7268 3.18343 14.6118 2.98011C14.4085 2.6 14.1124 2.30829 13.7234 2.10497C13.3345 1.90166 12.9279 1.8 12.5036 1.8C11.9997 1.8 11.5489 1.94586 11.1511 2.23757C10.9036 2.4232 10.6826 2.64862 10.4881 2.91381C10.3025 3.17901 10.1433 3.46188 10.0107 3.76243C9.88698 4.06298 9.78974 4.37238 9.71903 4.69061C9.65715 5 9.62621 5.29613 9.62621 5.57901C9.62621 5.9326 9.67041 6.27293 9.75881 6.6C9.85604 6.91823 10.0019 7.20111 10.1964 7.44862C10.3997 7.68729 10.6516 7.88177 10.9522 8.03204C11.2527 8.18232 11.6063 8.25746 12.0129 8.25746C12.1809 8.25746 12.3489 8.23536 12.5168 8.19116C12.6936 8.14696 12.8527 8.08508 12.9942 8.00552C13.2505 7.86409 13.4759 7.69171 13.6704 7.4884C13.8737 7.28508 14.0505 7.06409 14.2008 6.82541C14.3511 6.58674 14.4792 6.33481 14.5853 6.06961C14.6914 5.79558 14.7798 5.52597 14.8505 5.26077L14.8107 5.43315ZM15.8715 5.56575C15.792 5.87514 15.677 6.20221 15.5268 6.54696C15.3853 6.89171 15.2129 7.21878 15.0096 7.52818C14.8152 7.83757 14.5853 8.12044 14.3201 8.3768C14.0638 8.63315 13.7809 8.82762 13.4715 8.96022C13.3301 9.01326 13.2063 9.05746 13.1002 9.09282C12.9942 9.13702 12.8881 9.17238 12.782 9.1989C12.6759 9.22541 12.561 9.24751 12.4373 9.26519C12.3223 9.29171 12.1897 9.30939 12.0395 9.31823C12.0218 9.31823 11.9997 9.31823 11.9732 9.31823C11.9467 9.32707 11.9201 9.33149 11.8936 9.33149C11.6638 9.33149 11.4295 9.29171 11.1908 9.21215C10.9522 9.14144 10.7268 9.07072 10.5146 9C10.1522 8.8674 9.8472 8.67735 9.59969 8.42983C9.35218 8.18232 9.14886 7.90387 8.98974 7.59448C8.83947 7.27624 8.72897 6.94033 8.65825 6.58674C8.59637 6.23315 8.56544 5.87956 8.56544 5.52597C8.56544 5.39337 8.56985 5.26519 8.57869 5.14144C8.58753 5.00884 8.60079 4.88066 8.61847 4.75691C8.66267 4.47403 8.73781 4.16906 8.84389 3.84199C8.95881 3.51492 9.10024 3.19669 9.2682 2.88729C9.43615 2.56906 9.62621 2.27735 9.83836 2.01216C10.0594 1.74696 10.2936 1.53481 10.5411 1.37569C10.8505 1.17238 11.182 1.0221 11.5356 0.924862C11.8892 0.818785 12.2472 0.765746 12.6096 0.765746C13.2107 0.765746 13.7765 0.907183 14.3069 1.19006C14.8373 1.47293 15.2571 1.90608 15.5665 2.4895C15.7168 2.77238 15.8229 3.07293 15.8848 3.39116C15.9467 3.70055 15.9776 4.01436 15.9776 4.3326C15.9776 4.53591 15.9687 4.74365 15.9511 4.9558C15.9334 5.15912 15.9069 5.36243 15.8715 5.56575ZM18.6117 8.61547C18.6029 8.81878 18.541 8.96906 18.4261 9.0663C18.32 9.17238 18.2006 9.22541 18.068 9.22541C17.9443 9.22541 17.8294 9.1768 17.7233 9.07956C17.6172 8.99116 17.5509 8.84972 17.5244 8.65525V2.33039C17.383 2.31271 17.268 2.25967 17.1796 2.17127C17.1001 2.07403 17.0603 1.95912 17.0603 1.82652C17.0603 1.74696 17.078 1.66298 17.1134 1.57459C17.1575 1.48619 17.2238 1.40663 17.3122 1.33591C17.6924 1.09724 18.1167 0.907183 18.5852 0.765746C19.0537 0.61547 19.5266 0.540332 20.004 0.540332C20.3929 0.540332 20.7642 0.593371 21.1178 0.699448C21.4802 0.805525 21.8117 0.977901 22.1122 1.21657C22.4658 1.49945 22.7222 1.80884 22.8813 2.14475C23.0404 2.48066 23.12 2.82541 23.12 3.17901C23.12 3.46188 23.0714 3.74033 22.9741 4.01436C22.8857 4.2884 22.7575 4.54917 22.5896 4.79669C22.4216 5.03536 22.2183 5.25635 21.9796 5.45967C21.7498 5.65414 21.489 5.81768 21.1973 5.95028C21.5332 6.33039 21.8957 6.7326 22.2846 7.15691C22.6736 7.58122 23.036 7.97901 23.3719 8.35028C23.4692 8.47403 23.5178 8.61105 23.5178 8.76133C23.5178 8.9116 23.4692 9.03094 23.3719 9.11934C23.2747 9.21657 23.1553 9.26519 23.0139 9.26519C22.9432 9.26519 22.8636 9.24751 22.7752 9.21215C22.6957 9.18564 22.6205 9.1326 22.5498 9.05304C22.4968 8.99116 22.404 8.8895 22.2714 8.74807C22.1388 8.59779 21.9885 8.43425 21.8205 8.25746C21.6526 8.07182 21.4758 7.87735 21.2901 7.67403C21.1045 7.46188 20.9277 7.2674 20.7598 7.09061C20.6006 6.90497 20.4548 6.74144 20.3222 6.6C20.1896 6.45856 20.0968 6.35691 20.0437 6.29503C19.8051 6.33923 19.5664 6.37017 19.3277 6.38785C19.089 6.40553 18.8504 6.41878 18.6117 6.42762V8.61547ZM21.4095 2.03867C21.1973 1.8884 20.9631 1.78232 20.7067 1.72044C20.4592 1.65856 20.2029 1.62762 19.9377 1.62762C19.7078 1.62762 19.4824 1.64972 19.2614 1.69392C19.0404 1.73812 18.8238 1.8 18.6117 1.87956V5.34033C18.9476 5.32265 19.2835 5.29613 19.6194 5.26077C19.9553 5.22541 20.2868 5.14586 20.6139 5.0221C20.8084 4.95138 20.9896 4.84972 21.1575 4.71713C21.3343 4.58453 21.489 4.43425 21.6216 4.2663C21.7542 4.09834 21.8559 3.92155 21.9266 3.73591C22.0062 3.54144 22.0459 3.35138 22.0459 3.16575C22.0459 2.96243 21.9973 2.76354 21.9001 2.56906C21.8029 2.37459 21.6393 2.19779 21.4095 2.03867ZM31.4171 8.56243C31.4083 8.73039 31.3641 8.8674 31.2845 8.97348C31.2049 9.07956 31.1077 9.14144 30.9928 9.15912C30.8779 9.18564 30.763 9.16796 30.648 9.10608C30.5331 9.0442 30.4359 8.93812 30.3563 8.78785C30.3033 8.37238 30.2282 7.96575 30.1309 7.56796C30.0337 7.16133 29.9188 6.75912 29.7862 6.36133L26.2723 6.38785C26.2547 6.38785 26.2326 6.38785 26.2061 6.38785C26.1884 6.37901 26.1707 6.37459 26.153 6.37459C25.932 7.12597 25.7331 7.90387 25.5563 8.70829C25.4856 8.89392 25.384 9.01768 25.2514 9.07956C25.1188 9.14144 24.9906 9.1547 24.8668 9.11934C24.7519 9.08398 24.6547 9.00442 24.5751 8.88066C24.5044 8.75691 24.4867 8.59779 24.5221 8.40331C24.8138 7.12155 25.163 5.87072 25.5696 4.65083C25.9851 3.4221 26.5022 2.22431 27.121 1.05746C27.174 0.889503 27.2978 0.783426 27.4922 0.739227C27.5895 0.703868 27.6823 0.699448 27.7707 0.725967C27.8591 0.743647 27.9342 0.783426 27.9961 0.845304C28.0049 0.845304 28.0094 0.849724 28.0094 0.858564C28.0094 0.858564 28.0138 0.858564 28.0226 0.858564C28.4823 1.30055 28.8668 1.8 29.1762 2.35691C29.4856 2.91381 29.7685 3.47956 30.0248 4.05414C30.1221 4.25746 30.2105 4.46077 30.29 4.66409C30.3784 4.8674 30.4624 5.07072 30.542 5.27403L31.2447 5.26077C31.4127 5.31381 31.5364 5.39337 31.616 5.49945C31.6956 5.60553 31.7309 5.71602 31.7221 5.83094C31.7221 5.93702 31.6779 6.04309 31.5895 6.14917C31.5011 6.24641 31.3729 6.31271 31.2049 6.34807H30.9265C31.0414 6.7105 31.1386 7.07735 31.2182 7.44862C31.3066 7.81105 31.3729 8.18232 31.4171 8.56243ZM27.7574 2.18453C27.5099 2.6884 27.2801 3.20111 27.0679 3.72265C26.8646 4.2442 26.6746 4.77017 26.4978 5.30055L29.3884 5.27403C29.2735 5.00884 29.1541 4.74807 29.0304 4.49171C28.9154 4.23536 28.7961 3.97901 28.6723 3.72265C28.5309 3.4663 28.3895 3.20553 28.248 2.94033C28.1066 2.67514 27.9431 2.4232 27.7574 2.18453ZM37.5878 6.83867C37.7292 6.72376 37.8751 6.6663 38.0253 6.6663C38.1668 6.6663 38.2861 6.71492 38.3833 6.81215C38.4806 6.90939 38.5292 7.03315 38.5292 7.18343C38.5292 7.26298 38.5071 7.36022 38.4629 7.47514C38.3126 7.70497 38.1447 7.93039 37.959 8.15138C37.7822 8.36354 37.5833 8.55359 37.3624 8.72155C37.1414 8.88066 36.8983 9.00884 36.6331 9.10608C36.3767 9.21215 36.0894 9.26519 35.7712 9.26519C35.2938 9.26519 34.8563 9.16796 34.4585 8.97348C34.0695 8.77901 33.7292 8.51381 33.4375 8.1779C33.1546 7.84199 32.9336 7.44862 32.7745 6.99779C32.6242 6.53812 32.5491 6.04751 32.5491 5.52597C32.5491 5.1547 32.5977 4.80995 32.6949 4.49171C32.8275 4.0674 32.9822 3.69613 33.159 3.3779C33.3358 3.05967 33.5436 2.78122 33.7822 2.54254C34.0298 2.29503 34.3082 2.07845 34.6176 1.89282C34.9358 1.69834 35.2983 1.51713 35.7049 1.34917C35.9701 1.23425 36.2132 1.14586 36.4342 1.08398C36.664 1.0221 36.8806 0.991161 37.0839 0.991161C37.3933 0.991161 37.6717 1.07956 37.9193 1.25635C38.1668 1.43315 38.401 1.7337 38.622 2.15801C38.6485 2.23757 38.6618 2.31713 38.6618 2.39669C38.6618 2.5558 38.6132 2.68398 38.5159 2.78122C38.4187 2.87845 38.2994 2.92707 38.1579 2.92707C37.99 2.92707 37.8353 2.85635 37.6938 2.71492C37.5701 2.47624 37.4596 2.30829 37.3624 2.21105C37.2651 2.11381 37.1546 2.06519 37.0309 2.06519C36.9336 2.06519 36.8187 2.09171 36.6861 2.14475C36.5535 2.18895 36.3856 2.24641 36.1822 2.31713C35.8463 2.44972 35.5237 2.61326 35.2143 2.80773C34.9049 2.99337 34.6309 3.2232 34.3922 3.49724C34.1624 3.76243 33.9767 4.07182 33.8353 4.42541C33.7027 4.77901 33.6364 5.18122 33.6364 5.63204C33.6364 5.95028 33.685 6.26409 33.7822 6.57348C33.8795 6.87403 34.0165 7.14807 34.1933 7.39558C34.3789 7.63425 34.6043 7.82873 34.8695 7.97901C35.1347 8.12044 35.4397 8.19116 35.7845 8.19116C35.9878 8.19116 36.1778 8.15138 36.3546 8.07182C36.5314 7.99227 36.6949 7.88619 36.8452 7.75359C36.9955 7.62099 37.1325 7.47514 37.2563 7.31602C37.38 7.15691 37.4905 6.99779 37.5878 6.83867ZM40.7324 8.46961C40.7236 8.67293 40.6617 8.82762 40.5468 8.9337C40.4407 9.03094 40.3213 9.07956 40.1887 9.07956C40.065 9.07956 39.9457 9.03094 39.8307 8.9337C39.7158 8.83646 39.6451 8.69061 39.6186 8.49613C39.6274 7.34696 39.6318 6.20663 39.6318 5.07514C39.6318 3.94365 39.6274 2.76354 39.6186 1.53481C39.6628 1.35801 39.7335 1.22541 39.8307 1.13702C39.928 1.04862 40.0385 1.00442 40.1622 1.00442C40.2771 1.00442 40.3832 1.0442 40.4805 1.12376C40.5865 1.20332 40.6617 1.32707 40.7059 1.49503C40.7059 1.9989 40.7015 2.48066 40.6926 2.94033C40.6926 3.4 40.6926 3.88619 40.6926 4.3989C41.0816 4.23094 41.4131 4.04088 41.6871 3.82873C41.97 3.61657 42.2307 3.38232 42.4694 3.12597C42.7081 2.86077 42.9468 2.57348 43.1854 2.26409C43.4241 1.94586 43.6981 1.60553 44.0075 1.24309C44.149 1.12818 44.2948 1.07072 44.4451 1.07072C44.5865 1.07072 44.7059 1.11934 44.8031 1.21657C44.9003 1.31381 44.949 1.43757 44.949 1.58785C44.949 1.6674 44.9269 1.76464 44.8827 1.87956C44.6175 2.18895 44.3788 2.48066 44.1666 2.7547C43.9545 3.01989 43.7468 3.27182 43.5434 3.5105C43.3401 3.74917 43.1324 3.97459 42.9202 4.18674C42.7169 4.39006 42.4915 4.58011 42.244 4.75691C42.7655 5.31381 43.2827 5.8663 43.7954 6.41436C44.3081 6.95359 44.8208 7.50166 45.3335 8.05856C45.4307 8.18232 45.4794 8.31934 45.4794 8.46961C45.4794 8.61989 45.4307 8.74365 45.3335 8.84088C45.2363 8.92928 45.1169 8.97348 44.9755 8.97348C44.9048 8.97348 44.8252 8.96022 44.7368 8.9337C44.6573 8.89834 44.5821 8.84088 44.5114 8.76133C44.4495 8.69061 44.3346 8.56685 44.1666 8.39006C43.9987 8.21326 43.8042 8.00994 43.5832 7.78011C43.3711 7.54144 43.1412 7.29392 42.8937 7.03757C42.655 6.77238 42.4252 6.52486 42.2042 6.29503C41.9921 6.05635 41.802 5.84862 41.6341 5.67182C41.4661 5.49503 41.3512 5.37127 41.2893 5.30055C41.1213 5.38011 40.918 5.46409 40.6794 5.55249C40.6794 6.06519 40.6838 6.5558 40.6926 7.02431C40.7015 7.48398 40.7147 7.96575 40.7324 8.46961Z" fill="white"/>
</svg>
