<svg width="43" height="43" viewBox="0 0 43 43" fill="none" xmlns="http://www.w3.org/2000/svg">
<circle cx="21.5" cy="21.5" r="21.5" fill="black"/>
<path d="M18.9757 22.2066C19.0287 21.8088 19.0619 21.411 19.0751 21.0133C19.0884 20.6155 19.0619 20.2111 18.9956 19.8C18.9425 19.4552 18.8696 19.1105 18.7768 18.7657C18.6972 18.421 18.5646 18.0961 18.379 17.7912C18.1801 17.4464 17.9282 17.168 17.6232 16.9558C17.3315 16.7436 17.0133 16.6111 16.6685 16.558C16.337 16.4917 15.9989 16.5116 15.6541 16.6177C15.3094 16.7105 14.9845 16.8961 14.6796 17.1746C14.242 17.5724 13.8906 18.1293 13.6254 18.8453C13.3602 19.5481 13.1945 20.2906 13.1282 21.0729C13.0751 21.8552 13.1215 22.6177 13.2674 23.3602C13.4133 24.0895 13.6785 24.6729 14.063 25.1105C14.2884 25.3757 14.5271 25.5613 14.779 25.6674C15.0442 25.7602 15.3425 25.8398 15.674 25.9061C16.1779 25.853 16.6088 25.7204 16.9669 25.5083C17.3381 25.2961 17.6497 25.0309 17.9017 24.7127C18.1669 24.3945 18.379 24.0298 18.5381 23.6188C18.7105 23.2077 18.8497 22.7768 18.9558 22.326L18.9757 22.2066ZM20.5867 22.4055C20.4674 22.8961 20.2884 23.4265 20.0497 23.9967C19.8243 24.5536 19.5392 25.0773 19.1945 25.568C18.8497 26.0586 18.4453 26.4829 17.9812 26.8409C17.5171 27.1856 17.0066 27.3912 16.4497 27.4575C16.0652 27.5105 15.6939 27.5238 15.3359 27.4972C14.9912 27.484 14.6398 27.3845 14.2818 27.1989C14.0033 27.053 13.7315 26.9072 13.4663 26.7613C13.2144 26.6155 12.9956 26.4099 12.8099 26.1448C12.4917 25.7204 12.2331 25.263 12.0343 24.7724C11.8486 24.2818 11.7094 23.7779 11.6166 23.2608C11.537 22.7304 11.4972 22.2 11.4972 21.6696C11.5105 21.126 11.5569 20.5956 11.6365 20.0785C11.716 19.5215 11.8619 18.9448 12.074 18.3481C12.2994 17.7514 12.5912 17.2011 12.9492 16.6972C13.3072 16.1934 13.7381 15.7757 14.242 15.4442C14.7459 15.0994 15.3227 14.9138 15.9724 14.8873C16.2773 14.874 16.5691 14.8807 16.8475 14.9072C17.1392 14.9204 17.4243 14.9934 17.7028 15.126C17.9812 15.2586 18.2464 15.4044 18.4983 15.5635C18.7503 15.7227 18.9823 15.9149 19.1945 16.1403C19.579 16.5514 19.8773 17.0155 20.0895 17.5326C20.3017 18.0365 20.4541 18.5669 20.547 19.1238C20.6398 19.6674 20.6862 20.2243 20.6862 20.7945C20.6862 21.3514 20.653 21.8884 20.5867 22.4055ZM23.1375 26.1845C22.9254 25.9591 22.8193 25.7138 22.8193 25.4486C22.8193 25.2232 22.8922 25.0376 23.0381 24.8917C23.184 24.7326 23.3829 24.653 23.6348 24.653C23.7674 24.653 23.8934 24.6729 24.0127 24.7127C24.3574 24.9381 24.7154 25.1171 25.0867 25.2497C25.458 25.3823 25.8492 25.4486 26.2602 25.4486C26.605 25.4486 26.9298 25.389 27.2348 25.2696C27.5398 25.1503 27.8116 24.9845 28.0503 24.7724C28.2889 24.547 28.4746 24.2818 28.6072 23.9768C28.753 23.6718 28.8259 23.3337 28.8259 22.9624C28.8259 22.5912 28.7398 22.2796 28.5674 22.0276C28.395 21.7624 28.1762 21.5503 27.911 21.3912C27.6591 21.232 27.3806 21.1193 27.0757 21.053C26.7707 20.9735 26.4856 20.9337 26.2204 20.9337C25.995 20.9337 25.7696 20.9536 25.5442 20.9934C25.332 21.0199 25.1132 21.0663 24.8878 21.1326C24.795 21.1856 24.7155 21.2453 24.6492 21.3116C24.5961 21.3646 24.5364 21.4177 24.4701 21.4707C24.4171 21.5238 24.3508 21.5702 24.2713 21.6099C24.205 21.6365 24.1188 21.6497 24.0127 21.6497C23.8138 21.6497 23.6282 21.5768 23.4558 21.4309C23.2967 21.2851 23.1972 21.053 23.1574 20.7348C23.1309 20.0586 23.111 19.3823 23.0978 18.7061C23.0845 18.0298 23.0646 17.3403 23.0381 16.6376C22.8392 16.4519 22.7398 16.2331 22.7398 15.9812C22.7398 15.7691 22.8193 15.5702 22.9784 15.3845C23.1375 15.1989 23.3696 15.1061 23.6746 15.1061C23.7806 15.1061 23.9729 15.1061 24.2514 15.1061C24.5298 15.0928 24.8547 15.0862 25.2259 15.0862C25.6105 15.0729 26.0083 15.0663 26.4193 15.0663C26.8436 15.053 27.2414 15.0464 27.6127 15.0464C27.984 15.0331 28.3088 15.0265 28.5873 15.0265C28.879 15.0133 29.0713 15.0066 29.1641 15.0066C29.4293 15.0729 29.6215 15.1856 29.7409 15.3448C29.8602 15.5039 29.9199 15.6762 29.9199 15.8619C29.9199 16.0608 29.8469 16.2398 29.7011 16.3989C29.5685 16.558 29.3696 16.6707 29.1044 16.737C28.3619 16.7635 27.6259 16.7768 26.8967 16.7768C26.1806 16.7768 25.458 16.7901 24.7287 16.8166C24.742 17.2409 24.7552 17.6718 24.7685 18.1094C24.7817 18.5337 24.795 18.9646 24.8083 19.4022C25.0469 19.3359 25.2922 19.2895 25.5442 19.263C25.7961 19.2232 26.048 19.2033 26.3 19.2033C26.9497 19.2033 27.5331 19.316 28.0503 19.5414C28.5806 19.7536 29.0248 20.0453 29.3829 20.4166C29.7541 20.7878 30.0392 21.2055 30.2381 21.6696C30.437 22.1337 30.5364 22.6177 30.5364 23.1215C30.5364 23.5989 30.4304 24.0762 30.2182 24.5536C30.0193 25.0309 29.7276 25.4685 29.3431 25.8663C28.9718 26.2508 28.5276 26.5691 28.0105 26.821C27.4934 27.0597 26.9232 27.179 26.3 27.179C25.7431 27.179 25.1928 27.0928 24.6492 26.9204C24.1055 26.7348 23.6016 26.4895 23.1375 26.1845Z" fill="white"/>
</svg>
