<svg width="43" height="43" viewBox="0 0 43 43" fill="none" xmlns="http://www.w3.org/2000/svg">
<circle cx="21.5" cy="21.5" r="21.5" fill="black"/>
<path d="M15.9724 25.4884C16.2243 25.5547 16.4099 25.6674 16.5293 25.8265C16.6486 25.9724 16.7083 26.1315 16.7083 26.3039C16.7083 26.4895 16.642 26.6552 16.5094 26.8011C16.3768 26.947 16.1779 27.053 15.9127 27.1193H12.8497C12.558 27.0928 12.3392 27 12.1934 26.8409C12.0608 26.6685 11.9945 26.4895 11.9945 26.3039C11.9945 26.1182 12.0674 25.9392 12.2133 25.7669C12.3724 25.5812 12.6044 25.4884 12.9094 25.4884H13.4862V17.274C13.3006 17.4066 13.1017 17.4729 12.8895 17.4729C12.6641 17.4729 12.4785 17.4 12.3326 17.2541C12.2 17.095 12.1337 16.916 12.1337 16.7171C12.1337 16.5978 12.1602 16.4718 12.2133 16.3392C12.2796 16.2066 12.379 16.0873 12.5116 15.9812L13.884 15.0862C14.0564 15.0199 14.2022 14.9867 14.3215 14.9867C14.7326 14.9867 14.9978 15.2188 15.1171 15.6829V25.4884H15.9724ZM25.6554 22.2066C25.7084 21.8088 25.7416 21.411 25.7548 21.0133C25.7681 20.6155 25.7416 20.2111 25.6753 19.8C25.6222 19.4552 25.5493 19.1105 25.4565 18.7657C25.3769 18.421 25.2443 18.0961 25.0587 17.7912C24.8598 17.4464 24.6079 17.168 24.3029 16.9558C24.0112 16.7436 23.6929 16.6111 23.3482 16.558C23.0167 16.4917 22.6786 16.5116 22.3338 16.6177C21.9891 16.7105 21.6642 16.8961 21.3592 17.1746C20.9217 17.5724 20.5703 18.1293 20.3051 18.8453C20.0399 19.5481 19.8742 20.2906 19.8079 21.0729C19.7548 21.8552 19.8012 22.6177 19.9471 23.3602C20.0929 24.0895 20.3581 24.6729 20.7427 25.1105C20.9681 25.3757 21.2068 25.5613 21.4587 25.6674C21.7239 25.7602 22.0222 25.8398 22.3537 25.9061C22.8576 25.853 23.2885 25.7204 23.6465 25.5083C24.0178 25.2961 24.3294 25.0309 24.5813 24.7127C24.8465 24.3945 25.0587 24.0298 25.2178 23.6188C25.3902 23.2077 25.5294 22.7768 25.6355 22.326L25.6554 22.2066ZM27.2664 22.4055C27.1471 22.8961 26.9681 23.4265 26.7294 23.9967C26.504 24.5536 26.2189 25.0773 25.8742 25.568C25.5294 26.0586 25.125 26.4829 24.6609 26.8409C24.1968 27.1856 23.6863 27.3912 23.1294 27.4575C22.7449 27.5105 22.3736 27.5238 22.0156 27.4972C21.6708 27.484 21.3195 27.3845 20.9615 27.1989C20.683 27.053 20.4112 26.9072 20.146 26.7613C19.8941 26.6155 19.6753 26.4099 19.4896 26.1448C19.1714 25.7204 18.9128 25.263 18.7139 24.7724C18.5283 24.2818 18.3891 23.7779 18.2963 23.2608C18.2167 22.7304 18.1769 22.2 18.1769 21.6696C18.1902 21.126 18.2366 20.5956 18.3162 20.0785C18.3957 19.5215 18.5416 18.9448 18.7537 18.3481C18.9791 17.7514 19.2708 17.2011 19.6289 16.6972C19.9869 16.1934 20.4178 15.7757 20.9217 15.4442C21.4255 15.0994 22.0023 14.9138 22.6521 14.8873C22.957 14.874 23.2487 14.8807 23.5272 14.9072C23.8189 14.9204 24.104 14.9934 24.3824 15.126C24.6609 15.2586 24.9261 15.4044 25.178 15.5635C25.43 15.7227 25.662 15.9149 25.8742 16.1403C26.2587 16.5514 26.557 17.0155 26.7692 17.5326C26.9813 18.0365 27.1338 18.5669 27.2266 19.1238C27.3195 19.6674 27.3659 20.2243 27.3659 20.7945C27.3659 21.3514 27.3327 21.8884 27.2664 22.4055Z" fill="white"/>
</svg>
