<svg width="43" height="43" viewBox="0 0 43 43" fill="none" xmlns="http://www.w3.org/2000/svg">
<circle cx="21.5" cy="21.5" r="21.5" fill="black"/>
<path d="M15.2994 17.4133C15.1934 17.1746 15.0475 16.9757 14.8619 16.8166C14.6895 16.6575 14.5105 16.5646 14.3249 16.5381C13.7414 16.5381 13.211 16.6972 12.7337 17.0155C12.2564 17.3204 11.8188 17.6851 11.421 18.1094C11.2354 18.242 11.0365 18.3083 10.8243 18.3083C10.5989 18.3083 10.4133 18.2354 10.2674 18.0895C10.1348 17.9304 10.0685 17.7315 10.0685 17.4928C10.0685 17.2807 10.1282 17.0751 10.2475 16.8762C10.4994 16.6111 10.7713 16.3525 11.063 16.1006C11.3547 15.8354 11.6663 15.6033 11.9978 15.4044C12.3293 15.2055 12.6674 15.0464 13.0122 14.9271C13.3702 14.8077 13.7348 14.7481 14.1061 14.7481C14.5304 14.7481 14.9282 14.8409 15.2994 15.0265C15.6707 15.1989 15.9889 15.4508 16.2541 15.7823C16.5326 16.1006 16.7514 16.4851 16.9105 16.9359C17.0696 17.3867 17.1492 17.8773 17.1492 18.4077C17.1492 18.5801 17.1293 18.7591 17.0895 18.9448C16.9436 19.5547 16.7182 20.0519 16.4133 20.4365C16.1215 20.821 15.7901 21.1525 15.4188 21.4309C15.0608 21.6961 14.6829 21.9414 14.2851 22.1669C13.9006 22.379 13.5359 22.6177 13.1912 22.8829C12.8597 23.1481 12.568 23.4729 12.316 23.8575C12.0641 24.2287 11.8983 24.7061 11.8188 25.2895H15.5978C15.7569 25.2895 15.8762 25.2696 15.9558 25.2298C16.0354 25.1768 16.095 25.137 16.1348 25.1105C16.1613 25.084 16.2276 25.0044 16.3337 24.8718C16.453 24.7392 16.5392 24.6597 16.5923 24.6331C16.6586 24.5934 16.7315 24.5669 16.811 24.5536C16.9039 24.5403 16.9834 24.5337 17.0497 24.5337C17.2884 24.5337 17.4807 24.6199 17.6265 24.7923C17.7724 24.9514 17.8453 25.1436 17.8453 25.3691C17.8453 25.5149 17.8254 25.6276 17.7856 25.7072C17.7591 25.7867 17.7326 25.8398 17.7061 25.8663C17.4541 26.2243 17.1558 26.516 16.811 26.7414C16.4796 26.9536 16.095 27.0597 15.6575 27.0597H10.9238C10.4066 27.0066 10.1215 26.695 10.0685 26.1249C10.1083 25.6873 10.168 25.263 10.2475 24.8519C10.3271 24.4276 10.4398 24.0232 10.5856 23.6387C10.7315 23.2409 10.9171 22.8762 11.1425 22.5448C11.368 22.2 11.653 21.8884 11.9978 21.6099C12.3028 21.3713 12.6541 21.1459 13.0519 20.9337C13.4497 20.7215 13.8276 20.4895 14.1856 20.2376C14.5436 19.9724 14.8486 19.6674 15.1006 19.3227C15.3525 18.9779 15.4785 18.5602 15.4785 18.0696C15.4785 17.937 15.4519 17.7978 15.3989 17.6519C15.3459 17.5061 15.3127 17.4265 15.2994 17.4133ZM22.5507 25.9657C22.5507 26.2707 22.4313 26.5359 22.1927 26.7613C21.9673 26.9735 21.6954 27.0796 21.3772 27.0796C21.0192 27.0796 20.7209 26.9735 20.4822 26.7613C20.2568 26.5359 20.1441 26.2707 20.1441 25.9657C20.1441 25.6608 20.2568 25.3956 20.4822 25.1702C20.7209 24.9448 21.0192 24.832 21.3772 24.832C21.6954 24.832 21.9673 24.9448 22.1927 25.1702C22.4313 25.3956 22.5507 25.6608 22.5507 25.9657ZM25.8504 26.1845C25.6383 25.9591 25.5322 25.7138 25.5322 25.4486C25.5322 25.2232 25.6051 25.0376 25.751 24.8917C25.8968 24.7326 26.0957 24.653 26.3477 24.653C26.4803 24.653 26.6062 24.6729 26.7256 24.7127C27.0703 24.9381 27.4283 25.1171 27.7996 25.2497C28.1709 25.3823 28.562 25.4486 28.9731 25.4486C29.3178 25.4486 29.6427 25.389 29.9477 25.2696C30.2526 25.1503 30.5245 24.9845 30.7631 24.7724C31.0018 24.547 31.1875 24.2818 31.3201 23.9768C31.4659 23.6718 31.5388 23.3337 31.5388 22.9624C31.5388 22.5912 31.4526 22.2796 31.2803 22.0276C31.1079 21.7624 30.8891 21.5503 30.6239 21.3912C30.372 21.232 30.0935 21.1193 29.7886 21.053C29.4836 20.9735 29.1985 20.9337 28.9333 20.9337C28.7079 20.9337 28.4825 20.9536 28.2571 20.9934C28.0449 21.0199 27.8261 21.0663 27.6007 21.1326C27.5079 21.1856 27.4283 21.2453 27.362 21.3116C27.309 21.3646 27.2493 21.4177 27.183 21.4707C27.13 21.5238 27.0637 21.5702 26.9841 21.6099C26.9178 21.6365 26.8317 21.6497 26.7256 21.6497C26.5267 21.6497 26.341 21.5768 26.1687 21.4309C26.0096 21.2851 25.9101 21.053 25.8703 20.7348C25.8438 20.0586 25.8239 19.3823 25.8107 18.7061C25.7974 18.0298 25.7775 17.3403 25.751 16.6376C25.5521 16.4519 25.4527 16.2331 25.4527 15.9812C25.4527 15.7691 25.5322 15.5702 25.6913 15.3845C25.8504 15.1989 26.0825 15.1061 26.3875 15.1061C26.4935 15.1061 26.6858 15.1061 26.9643 15.1061C27.2427 15.0928 27.5676 15.0862 27.9388 15.0862C28.3234 15.0729 28.7212 15.0663 29.1322 15.0663C29.5565 15.053 29.9543 15.0464 30.3256 15.0464C30.6968 15.0331 31.0217 15.0265 31.3002 15.0265C31.5919 15.0133 31.7841 15.0066 31.877 15.0066C32.1422 15.0729 32.3344 15.1856 32.4538 15.3448C32.5731 15.5039 32.6328 15.6762 32.6328 15.8619C32.6328 16.0608 32.5598 16.2398 32.414 16.3989C32.2814 16.558 32.0825 16.6707 31.8173 16.737C31.0747 16.7635 30.3388 16.7768 29.6096 16.7768C28.8935 16.7768 28.1709 16.7901 27.4416 16.8166C27.4549 17.2409 27.4681 17.6718 27.4814 18.1094C27.4946 18.5337 27.5079 18.9646 27.5212 19.4022C27.7598 19.3359 28.0051 19.2895 28.2571 19.263C28.509 19.2232 28.7609 19.2033 29.0129 19.2033C29.6626 19.2033 30.246 19.316 30.7631 19.5414C31.2935 19.7536 31.7377 20.0453 32.0957 20.4166C32.467 20.7878 32.7521 21.2055 32.951 21.6696C33.1499 22.1337 33.2493 22.6177 33.2493 23.1215C33.2493 23.5989 33.1433 24.0762 32.9311 24.5536C32.7322 25.0309 32.4405 25.4685 32.056 25.8663C31.6847 26.2508 31.2405 26.5691 30.7234 26.821C30.2062 27.0597 29.6361 27.179 29.0129 27.179C28.456 27.179 27.9057 27.0928 27.362 26.9204C26.8184 26.7348 26.3145 26.4895 25.8504 26.1845Z" fill="white"/>
</svg>
