<svg width="43" height="43" viewBox="0 0 43 43" fill="none" xmlns="http://www.w3.org/2000/svg">
<circle cx="21.5" cy="21.5" r="21.5" fill="black"/>
<path d="M18.2994 17.4133C18.1934 17.1746 18.0475 16.9757 17.8619 16.8166C17.6895 16.6575 17.5105 16.5646 17.3249 16.5381C16.7414 16.5381 16.211 16.6972 15.7337 17.0155C15.2564 17.3204 14.8188 17.6851 14.421 18.1094C14.2354 18.242 14.0365 18.3083 13.8243 18.3083C13.5989 18.3083 13.4133 18.2354 13.2674 18.0895C13.1348 17.9304 13.0685 17.7315 13.0685 17.4928C13.0685 17.2807 13.1282 17.0751 13.2475 16.8762C13.4994 16.6111 13.7713 16.3525 14.063 16.1006C14.3547 15.8354 14.6663 15.6033 14.9978 15.4044C15.3293 15.2055 15.6674 15.0464 16.0122 14.9271C16.3702 14.8077 16.7348 14.7481 17.1061 14.7481C17.5304 14.7481 17.9282 14.8409 18.2994 15.0265C18.6707 15.1989 18.9889 15.4508 19.2541 15.7823C19.5326 16.1006 19.7514 16.4851 19.9105 16.9359C20.0696 17.3867 20.1492 17.8773 20.1492 18.4077C20.1492 18.5801 20.1293 18.7591 20.0895 18.9448C19.9436 19.5547 19.7182 20.0519 19.4133 20.4365C19.1215 20.821 18.7901 21.1525 18.4188 21.4309C18.0608 21.6961 17.6829 21.9414 17.2851 22.1669C16.9006 22.379 16.5359 22.6177 16.1912 22.8829C15.8597 23.1481 15.568 23.4729 15.316 23.8575C15.0641 24.2287 14.8983 24.7061 14.8188 25.2895H18.5978C18.7569 25.2895 18.8762 25.2696 18.9558 25.2298C19.0354 25.1768 19.095 25.137 19.1348 25.1105C19.1613 25.084 19.2276 25.0044 19.3337 24.8718C19.453 24.7392 19.5392 24.6597 19.5923 24.6331C19.6586 24.5934 19.7315 24.5669 19.811 24.5536C19.9039 24.5403 19.9834 24.5337 20.0497 24.5337C20.2884 24.5337 20.4807 24.6199 20.6265 24.7923C20.7724 24.9514 20.8453 25.1436 20.8453 25.3691C20.8453 25.5149 20.8254 25.6276 20.7856 25.7072C20.7591 25.7867 20.7326 25.8398 20.7061 25.8663C20.4541 26.2243 20.1558 26.516 19.811 26.7414C19.4796 26.9536 19.095 27.0597 18.6575 27.0597H13.9238C13.4066 27.0066 13.1215 26.695 13.0685 26.1249C13.1083 25.6873 13.168 25.263 13.2475 24.8519C13.3271 24.4276 13.4398 24.0232 13.5856 23.6387C13.7315 23.2409 13.9171 22.8762 14.1425 22.5448C14.368 22.2 14.653 21.8884 14.9978 21.6099C15.3028 21.3713 15.6541 21.1459 16.0519 20.9337C16.4497 20.7215 16.8276 20.4895 17.1856 20.2376C17.5436 19.9724 17.8486 19.6674 18.1006 19.3227C18.3525 18.9779 18.4785 18.5602 18.4785 18.0696C18.4785 17.937 18.4519 17.7978 18.3989 17.6519C18.3459 17.5061 18.3127 17.4265 18.2994 17.4133ZM23.1375 26.1845C22.9254 25.9591 22.8193 25.7138 22.8193 25.4486C22.8193 25.2232 22.8922 25.0376 23.0381 24.8917C23.184 24.7326 23.3829 24.653 23.6348 24.653C23.7674 24.653 23.8934 24.6729 24.0127 24.7127C24.3574 24.9381 24.7154 25.1171 25.0867 25.2497C25.458 25.3823 25.8492 25.4486 26.2602 25.4486C26.605 25.4486 26.9298 25.389 27.2348 25.2696C27.5398 25.1503 27.8116 24.9845 28.0503 24.7724C28.2889 24.547 28.4746 24.2818 28.6072 23.9768C28.753 23.6718 28.8259 23.3337 28.8259 22.9624C28.8259 22.5912 28.7398 22.2796 28.5674 22.0276C28.395 21.7624 28.1762 21.5503 27.911 21.3912C27.6591 21.232 27.3806 21.1193 27.0757 21.053C26.7707 20.9735 26.4856 20.9337 26.2204 20.9337C25.995 20.9337 25.7696 20.9536 25.5442 20.9934C25.332 21.0199 25.1132 21.0663 24.8878 21.1326C24.795 21.1856 24.7155 21.2453 24.6492 21.3116C24.5961 21.3646 24.5364 21.4177 24.4701 21.4707C24.4171 21.5238 24.3508 21.5702 24.2713 21.6099C24.205 21.6365 24.1188 21.6497 24.0127 21.6497C23.8138 21.6497 23.6282 21.5768 23.4558 21.4309C23.2967 21.2851 23.1972 21.053 23.1574 20.7348C23.1309 20.0586 23.111 19.3823 23.0978 18.7061C23.0845 18.0298 23.0646 17.3403 23.0381 16.6376C22.8392 16.4519 22.7398 16.2331 22.7398 15.9812C22.7398 15.7691 22.8193 15.5702 22.9784 15.3845C23.1375 15.1989 23.3696 15.1061 23.6746 15.1061C23.7806 15.1061 23.9729 15.1061 24.2514 15.1061C24.5298 15.0928 24.8547 15.0862 25.2259 15.0862C25.6105 15.0729 26.0083 15.0663 26.4193 15.0663C26.8436 15.053 27.2414 15.0464 27.6127 15.0464C27.984 15.0331 28.3088 15.0265 28.5873 15.0265C28.879 15.0133 29.0713 15.0066 29.1641 15.0066C29.4293 15.0729 29.6215 15.1856 29.7409 15.3448C29.8602 15.5039 29.9199 15.6762 29.9199 15.8619C29.9199 16.0608 29.8469 16.2398 29.7011 16.3989C29.5685 16.558 29.3696 16.6707 29.1044 16.737C28.3619 16.7635 27.6259 16.7768 26.8967 16.7768C26.1806 16.7768 25.458 16.7901 24.7287 16.8166C24.742 17.2409 24.7552 17.6718 24.7685 18.1094C24.7817 18.5337 24.795 18.9646 24.8083 19.4022C25.0469 19.3359 25.2922 19.2895 25.5442 19.263C25.7961 19.2232 26.048 19.2033 26.3 19.2033C26.9497 19.2033 27.5331 19.316 28.0503 19.5414C28.5806 19.7536 29.0248 20.0453 29.3829 20.4166C29.7541 20.7878 30.0392 21.2055 30.2381 21.6696C30.437 22.1337 30.5364 22.6177 30.5364 23.1215C30.5364 23.5989 30.4304 24.0762 30.2182 24.5536C30.0193 25.0309 29.7276 25.4685 29.3431 25.8663C28.9718 26.2508 28.5276 26.5691 28.0105 26.821C27.4934 27.0597 26.9232 27.179 26.3 27.179C25.7431 27.179 25.1928 27.0928 24.6492 26.9204C24.1055 26.7348 23.6016 26.4895 23.1375 26.1845Z" fill="white"/>
</svg>
