<svg width="43" height="43" viewBox="0 0 43 43" fill="none" xmlns="http://www.w3.org/2000/svg">
<circle cx="21.5" cy="21.5" r="21.5" fill="black"/>
<path d="M12.9492 25.7867C12.8033 25.5878 12.7304 25.3823 12.7304 25.1702C12.7304 24.9448 12.8033 24.7657 12.9492 24.6331C13.095 24.4873 13.2807 24.4144 13.5061 24.4144C13.6785 24.4144 13.8575 24.4807 14.0431 24.6133C14.2287 24.7326 14.421 24.8652 14.6199 25.011C14.8188 25.1569 15.0243 25.2961 15.2365 25.4287C15.4619 25.5481 15.7006 25.6077 15.9525 25.6077C16.3105 25.6077 16.6287 25.5348 16.9072 25.389C17.1989 25.2298 17.4376 25.0243 17.6232 24.7724C17.8221 24.5204 17.968 24.2354 18.0608 23.9171C18.1669 23.5989 18.2199 23.274 18.2199 22.9425C18.2199 22.5978 18.1006 22.3127 17.8619 22.0873C17.6365 21.8619 17.3514 21.6829 17.0066 21.5503C16.6751 21.4177 16.3304 21.3249 15.9724 21.2718C15.6144 21.2188 15.3028 21.1923 15.0376 21.1923C14.7856 21.126 14.6 21.0199 14.4807 20.874C14.3613 20.7149 14.3017 20.5492 14.3017 20.3768C14.3017 20.2044 14.368 20.0453 14.5006 19.8994C14.6331 19.7403 14.832 19.6276 15.0972 19.5613C15.3359 19.5348 15.5878 19.495 15.853 19.442C16.1182 19.3757 16.3768 19.2961 16.6287 19.2033C16.8807 19.0972 17.1061 18.9713 17.305 18.8254C17.5171 18.6663 17.6762 18.474 17.7823 18.2486L17.8022 17.7514L17.7227 17.3337C17.6961 17.1878 17.6298 17.0685 17.5238 16.9757C17.4177 16.8829 17.2851 16.8099 17.126 16.7569C16.9801 16.7039 16.821 16.6707 16.6486 16.6575C16.4762 16.6309 16.3105 16.6177 16.1514 16.6177C15.8464 16.6177 15.5149 16.6508 15.1569 16.7171C14.7989 16.7702 14.5337 16.8431 14.3613 16.9359C14.2155 17.042 14.0829 17.1348 13.9635 17.2144C13.8442 17.2807 13.7116 17.3138 13.5657 17.3138C13.3536 17.3138 13.168 17.2343 13.0088 17.0751C12.863 16.9028 12.7901 16.6575 12.7901 16.3392C12.8298 16.1138 12.9425 15.9215 13.1282 15.7624C13.3138 15.6033 13.5326 15.4773 13.7845 15.3845C14.0497 15.2917 14.3215 15.2188 14.6 15.1657C14.8917 15.1127 15.1503 15.0729 15.3757 15.0464C15.6011 15.0199 15.7735 15.0066 15.8928 15.0066C16.0254 15.0066 16.0652 15.0066 16.0122 15.0066C16.4895 15.0066 16.9337 15.0663 17.3448 15.1856C17.7558 15.2917 18.1138 15.4641 18.4188 15.7028C18.737 15.9282 18.9823 16.2199 19.1547 16.5779C19.3403 16.9359 19.4331 17.3602 19.4331 17.8508C19.4331 17.9436 19.4265 18.0829 19.4133 18.2685C19.4 18.4541 19.3536 18.6597 19.274 18.8851C19.1945 19.0972 19.0552 19.3293 18.8564 19.5812C18.6707 19.8199 18.3989 20.0586 18.0409 20.2972C18.2796 20.4298 18.5116 20.5956 18.737 20.7945C18.9757 20.9801 19.1812 21.1989 19.3536 21.4508C19.5392 21.6895 19.6851 21.9547 19.7912 22.2464C19.8972 22.5381 19.9503 22.8497 19.9503 23.1812C19.9503 23.6851 19.8309 24.1823 19.5923 24.6729C19.3669 25.1635 19.0685 25.6011 18.6972 25.9856C18.3392 26.3569 17.9282 26.6619 17.4641 26.9006C17 27.126 16.5359 27.2387 16.0718 27.2387C15.4751 27.2387 14.9182 27.0928 14.4011 26.8011C13.884 26.5094 13.4 26.1713 12.9492 25.7867ZM23.1375 26.1845C22.9254 25.9591 22.8193 25.7138 22.8193 25.4486C22.8193 25.2232 22.8922 25.0376 23.0381 24.8917C23.184 24.7326 23.3829 24.653 23.6348 24.653C23.7674 24.653 23.8934 24.6729 24.0127 24.7127C24.3574 24.9381 24.7154 25.1171 25.0867 25.2497C25.458 25.3823 25.8492 25.4486 26.2602 25.4486C26.605 25.4486 26.9298 25.389 27.2348 25.2696C27.5398 25.1503 27.8116 24.9845 28.0503 24.7724C28.2889 24.547 28.4746 24.2818 28.6072 23.9768C28.753 23.6718 28.8259 23.3337 28.8259 22.9624C28.8259 22.5912 28.7398 22.2796 28.5674 22.0276C28.395 21.7624 28.1762 21.5503 27.911 21.3912C27.6591 21.232 27.3806 21.1193 27.0757 21.053C26.7707 20.9735 26.4856 20.9337 26.2204 20.9337C25.995 20.9337 25.7696 20.9536 25.5442 20.9934C25.332 21.0199 25.1132 21.0663 24.8878 21.1326C24.795 21.1856 24.7155 21.2453 24.6492 21.3116C24.5961 21.3646 24.5364 21.4177 24.4701 21.4707C24.4171 21.5238 24.3508 21.5702 24.2713 21.6099C24.205 21.6365 24.1188 21.6497 24.0127 21.6497C23.8138 21.6497 23.6282 21.5768 23.4558 21.4309C23.2967 21.2851 23.1972 21.053 23.1574 20.7348C23.1309 20.0586 23.111 19.3823 23.0978 18.7061C23.0845 18.0298 23.0646 17.3403 23.0381 16.6376C22.8392 16.4519 22.7398 16.2331 22.7398 15.9812C22.7398 15.7691 22.8193 15.5702 22.9784 15.3845C23.1375 15.1989 23.3696 15.1061 23.6746 15.1061C23.7806 15.1061 23.9729 15.1061 24.2514 15.1061C24.5298 15.0928 24.8547 15.0862 25.2259 15.0862C25.6105 15.0729 26.0083 15.0663 26.4193 15.0663C26.8436 15.053 27.2414 15.0464 27.6127 15.0464C27.984 15.0331 28.3088 15.0265 28.5873 15.0265C28.879 15.0133 29.0713 15.0066 29.1641 15.0066C29.4293 15.0729 29.6215 15.1856 29.7409 15.3448C29.8602 15.5039 29.9199 15.6762 29.9199 15.8619C29.9199 16.0608 29.8469 16.2398 29.7011 16.3989C29.5685 16.558 29.3696 16.6707 29.1044 16.737C28.3619 16.7635 27.6259 16.7768 26.8967 16.7768C26.1806 16.7768 25.458 16.7901 24.7287 16.8166C24.742 17.2409 24.7552 17.6718 24.7685 18.1094C24.7817 18.5337 24.795 18.9646 24.8083 19.4022C25.0469 19.3359 25.2922 19.2895 25.5442 19.263C25.7961 19.2232 26.048 19.2033 26.3 19.2033C26.9497 19.2033 27.5331 19.316 28.0503 19.5414C28.5806 19.7536 29.0248 20.0453 29.3829 20.4166C29.7541 20.7878 30.0392 21.2055 30.2381 21.6696C30.437 22.1337 30.5364 22.6177 30.5364 23.1215C30.5364 23.5989 30.4304 24.0762 30.2182 24.5536C30.0193 25.0309 29.7276 25.4685 29.3431 25.8663C28.9718 26.2508 28.5276 26.5691 28.0105 26.821C27.4934 27.0597 26.9232 27.179 26.3 27.179C25.7431 27.179 25.1928 27.0928 24.6492 26.9204C24.1055 26.7348 23.6016 26.4895 23.1375 26.1845Z" fill="white"/>
</svg>
