<svg width="43" height="43" viewBox="0 0 43 43" fill="none" xmlns="http://www.w3.org/2000/svg">
<circle cx="21.5" cy="21.5" r="21.5" fill="black"/>
<path d="M18.6773 26.6221C18.6641 26.9271 18.5713 27.1591 18.3989 27.3182C18.2398 27.4773 18.0541 27.5569 17.842 27.5569C17.6564 27.5569 17.484 27.484 17.3249 27.3381C17.179 27.2055 17.0862 26.9867 17.0464 26.6818V24.474C16.2906 24.4608 15.5414 24.4541 14.7989 24.4541C14.0696 24.4409 13.3801 24.4276 12.7304 24.4144C12.1602 24.3481 11.8751 24.063 11.8751 23.5591C11.8751 23.4928 11.8884 23.4066 11.9149 23.3006C12.6442 21.9878 13.3801 20.7017 14.1227 19.442C14.8652 18.1691 15.6077 16.8829 16.3503 15.5834C16.4564 15.4111 16.5757 15.2851 16.7083 15.2055C16.8541 15.126 17 15.0862 17.1459 15.0862C17.3315 15.0862 17.5039 15.1591 17.663 15.305C17.8354 15.4508 17.9215 15.6497 17.9215 15.9017C17.9215 16.021 17.8818 16.1602 17.8022 16.3193C17.179 17.3934 16.5558 18.4674 15.9326 19.5414C15.3227 20.6155 14.7061 21.6895 14.0829 22.7635C14.5337 22.7768 15.0044 22.7901 15.495 22.8033C15.9989 22.8033 16.516 22.8099 17.0464 22.8232V20.6155C17.1127 20.3503 17.2122 20.158 17.3448 20.0387C17.4906 19.9061 17.6564 19.8398 17.842 19.8398C18.0276 19.8398 18.1934 19.8994 18.3392 20.0188C18.4983 20.1249 18.611 20.3039 18.6773 20.5558V22.8431H19.8508C20.116 22.9359 20.3083 23.0552 20.4276 23.2011C20.547 23.347 20.6066 23.5061 20.6066 23.6785C20.6066 23.8641 20.5337 24.0365 20.3878 24.1956C20.2552 24.3414 20.0564 24.4475 19.7912 24.5138C19.6188 24.5138 19.4398 24.5138 19.2541 24.5138C19.0685 24.5138 18.8762 24.5072 18.6773 24.4939V26.6221ZM22.0829 26.1845C21.8707 25.9591 21.7646 25.7138 21.7646 25.4486C21.7646 25.2232 21.8376 25.0376 21.9834 24.8917C22.1293 24.7326 22.3282 24.653 22.5801 24.653C22.7127 24.653 22.8387 24.6729 22.958 24.7127C23.3028 24.9381 23.6608 25.1171 24.032 25.2497C24.4033 25.3823 24.7945 25.4486 25.2055 25.4486C25.5503 25.4486 25.8751 25.389 26.1801 25.2696C26.4851 25.1503 26.7569 24.9845 26.9956 24.7724C27.2342 24.547 27.4199 24.2818 27.5525 23.9768C27.6983 23.6718 27.7713 23.3337 27.7713 22.9624C27.7713 22.5912 27.6851 22.2796 27.5127 22.0276C27.3403 21.7624 27.1215 21.5503 26.8563 21.3912C26.6044 21.232 26.326 21.1193 26.021 21.053C25.716 20.9735 25.4309 20.9337 25.1657 20.9337C24.9403 20.9337 24.7149 20.9536 24.4895 20.9934C24.2773 21.0199 24.0586 21.0663 23.8331 21.1326C23.7403 21.1856 23.6608 21.2453 23.5945 21.3116C23.5414 21.3646 23.4818 21.4177 23.4155 21.4707C23.3624 21.5238 23.2961 21.5702 23.2166 21.6099C23.1503 21.6365 23.0641 21.6497 22.958 21.6497C22.7591 21.6497 22.5735 21.5768 22.4011 21.4309C22.242 21.2851 22.1425 21.053 22.1028 20.7348C22.0762 20.0586 22.0563 19.3823 22.0431 18.7061C22.0298 18.0298 22.0099 17.3403 21.9834 16.6376C21.7845 16.4519 21.6851 16.2331 21.6851 15.9812C21.6851 15.7691 21.7646 15.5702 21.9237 15.3845C22.0829 15.1989 22.3149 15.1061 22.6199 15.1061C22.726 15.1061 22.9182 15.1061 23.1967 15.1061C23.4751 15.0928 23.8 15.0862 24.1713 15.0862C24.5558 15.0729 24.9536 15.0663 25.3646 15.0663C25.7889 15.053 26.1867 15.0464 26.558 15.0464C26.9293 15.0331 27.2541 15.0265 27.5326 15.0265C27.8243 15.0133 28.0166 15.0066 28.1094 15.0066C28.3746 15.0729 28.5668 15.1856 28.6862 15.3448C28.8055 15.5039 28.8652 15.6762 28.8652 15.8619C28.8652 16.0608 28.7923 16.2398 28.6464 16.3989C28.5138 16.558 28.3149 16.6707 28.0497 16.737C27.3072 16.7635 26.5713 16.7768 25.842 16.7768C25.126 16.7768 24.4033 16.7901 23.674 16.8166C23.6873 17.2409 23.7005 17.6718 23.7138 18.1094C23.7271 18.5337 23.7403 18.9646 23.7536 19.4022C23.9923 19.3359 24.2376 19.2895 24.4895 19.263C24.7414 19.2232 24.9934 19.2033 25.2453 19.2033C25.895 19.2033 26.4784 19.316 26.9956 19.5414C27.526 19.7536 27.9702 20.0453 28.3282 20.4166C28.6994 20.7878 28.9845 21.2055 29.1834 21.6696C29.3823 22.1337 29.4818 22.6177 29.4818 23.1215C29.4818 23.5989 29.3757 24.0762 29.1635 24.5536C28.9646 25.0309 28.6729 25.4685 28.2884 25.8663C27.9171 26.2508 27.4729 26.5691 26.9558 26.821C26.4387 27.0597 25.8685 27.179 25.2453 27.179C24.6884 27.179 24.1381 27.0928 23.5945 26.9204C23.0508 26.7348 22.547 26.4895 22.0829 26.1845Z" fill="white"/>
</svg>
